<svg width="3701" height="1462" xmlns="http://www.w3.org/2000/svg" xmlns:xlink="http://www.w3.org/1999/xlink" overflow="hidden"><defs><clipPath id="clip0"><rect x="216" y="738" width="3701" height="1462"/></clipPath></defs><g clip-path="url(#clip0)" transform="translate(-216 -738)"><rect x="1497.5" y="1268.5" width="1085" height="487" stroke="#41719C" stroke-width="4.58333" stroke-miterlimit="8" fill="#5B9BD5"/><text fill="#FFFFFF" font-family="Calibri,Calibri_MSFontService,sans-serif" font-weight="400" font-size="83" transform="matrix(1 0 0 1 1765.96 1539)">Investment Pool</text><rect x="1497.5" y="1779.5" width="548" height="169" stroke="#507E32" stroke-width="4.58333" stroke-miterlimit="8" fill="#A0CC82"/><text fill="#FFFFFF" font-family="Calibri,Calibri_MSFontService,sans-serif" font-weight="400" font-size="83" transform="matrix(1 0 0 1 1661.86 1891)">RaDEX</text><rect x="2069.5" y="1779.5" width="513" height="169" stroke="#507E32" stroke-width="4.58333" stroke-miterlimit="8" fill="#A0CC82"/><text fill="#FFFFFF" font-family="Calibri,Calibri_MSFontService,sans-serif" font-weight="400" font-size="83" transform="matrix(1 0 0 1 2124.43 1891)">Price Oracle</text><rect x="1497.5" y="917.5" width="1085" height="330" stroke="#41719C" stroke-width="4.58333" stroke-miterlimit="8" fill="#A3C7E7"/><text fill="#FFFFFF" font-family="Calibri,Calibri_MSFontService,sans-serif" font-weight="400" font-size="83" transform="matrix(1 0 0 1 1867.65 1110)">RadHedge</text><rect x="1044.5" y="1268.5" width="430" height="680" stroke="#787878" stroke-width="4.58333" stroke-miterlimit="8" fill="#A5A5A5"/><text fill="#FFFFFF" font-family="Calibri,Calibri_MSFontService,sans-serif" font-weight="400" font-size="83" transform="matrix(1 0 0 1 1188.34 1537)">Test <tspan font-size="83" x="-69.8959" y="99">Environ</tspan><tspan font-size="83" x="185.625" y="99">-</tspan><tspan font-size="83" x="-18.6312" y="198">ment</tspan></text></g></svg>